<svg width="34" height="43" viewBox="0 0 34 43" fill="none" xmlns="http://www.w3.org/2000/svg">
<circle cx="17.02" cy="34.8708" r="2.92135" stroke="white" stroke-width="2"/>
<circle cx="11.1773" cy="30.8258" r="1.79775" fill="white"/>
<path d="M17.02 1.5C14.3233 1.5 12.8627 3.44757 12.3009 3.63483C11.7391 3.8221 6.17184 1.27528 3.19975 5.88202C-1.29463 12.8483 5.44694 16.2191 6.00874 16.6685C6.00874 16.6685 6.00874 22.5112 6.00874 22.9607C6.00874 23.4101 5.89638 24.9582 6.45818 25.2079C7.46941 25.6573 11.5333 27.4551 17.02 27.4551" stroke="white" stroke-width="2" stroke-linejoin="round"/>
<path d="M2.63797 37.7921C2.63797 37.7921 8.03123 41.5 11.5144 41.5C14.9975 41.5 17.1324 39.9269 16.3458 38.1292C15.447 36.7809 12.7503 35.5449 7.01999 38.8033C5.10988 39.8242 2.63797 37.7921 2.63797 37.7921Z" stroke="white" stroke-width="2" stroke-linejoin="round"/>
<circle r="1.79775" transform="matrix(-1 0 0 1 23.0874 30.8258)" fill="white"/>
<path d="M17.02 1.5C19.7166 1.5 21.1773 3.44757 21.7391 3.63483C22.3009 3.8221 27.8681 1.27528 30.8402 5.88202C35.3346 12.8483 28.593 16.2191 28.0312 16.6685C28.0312 16.6685 28.0312 22.5112 28.0312 22.9607C28.0312 23.4101 28.1436 24.9582 27.5818 25.2079C26.5706 25.6573 22.5067 27.4551 17.02 27.4551" stroke="white" stroke-width="2" stroke-linejoin="round"/>
<path d="M31.6267 37.7921C31.6267 37.7921 26.2335 41.5 22.7503 41.5C19.2672 41.5 17.1324 39.9269 17.9189 38.1292C18.8177 36.7809 21.5144 35.5449 27.2447 38.8033C29.1548 39.8242 31.6267 37.7921 31.6267 37.7921Z" stroke="white" stroke-width="2" stroke-linejoin="round"/>
</svg>
