<svg width="24" height="24" viewBox="0 0 24 24" fill="none" xmlns="http://www.w3.org/2000/svg">
<g id="arrow-right">
<path id="Union" fill-rule="evenodd" clip-rule="evenodd" d="M12.8906 5.22798C12.6072 5.53127 12.6082 6.02195 12.8928 6.32394L17.5121 11.2249H4.72726L4.62858 11.232C4.2736 11.2833 4 11.6076 4 11.9999C4 12.4279 4.32561 12.7749 4.72726 12.7749H17.5105L12.8928 17.6757L12.8222 17.7625C12.6104 18.0654 12.633 18.496 12.8907 18.7717C13.1741 19.075 13.6346 19.076 13.9192 18.774L19.7687 12.5665C19.9048 12.4311 19.9921 12.2407 19.9993 12.0286C20.0067 11.8201 19.9355 11.609 19.7857 11.4501L13.9191 5.22562L13.8374 5.15077C13.5522 4.92632 13.1483 4.95226 12.8906 5.22798Z" fill="white"/>
</g>
</svg>
