<svg width="24" height="24" viewBox="0 0 24 24" fill="none" xmlns="http://www.w3.org/2000/svg">
<g id="bookmark-active">
<g id="Icon">
<path id="Stroke 2" fill-rule="evenodd" clip-rule="evenodd" d="M11.9702 2.5C5.58324 2.5 4.50424 3.432 4.50424 10.929C4.50424 19.322 4.34724 21.5 5.94324 21.5C7.53824 21.5 10.1432 17.816 11.9702 17.816C13.7972 17.816 16.4022 21.5 17.9972 21.5C19.5932 21.5 19.4362 19.322 19.4362 10.929C19.4362 3.432 18.3572 2.5 11.9702 2.5Z" fill="#129575"/>
<path id="Union" fill-rule="evenodd" clip-rule="evenodd" d="M7.95867 2.02799C9.03812 1.80708 10.3688 1.75 11.9701 1.75C13.5715 1.75 14.9021 1.80708 15.9816 2.02799C17.0746 2.25168 17.9754 2.65608 18.6522 3.39749C19.321 4.13015 19.6931 5.10742 19.9064 6.31915C20.1193 7.52872 20.1861 9.04736 20.1861 10.929C20.1861 11.6552 20.1874 12.337 20.1885 12.9766C20.194 16.0013 20.1977 18.0807 20.0614 19.4369C19.98 20.2461 19.8397 20.9329 19.5312 21.4262C19.3652 21.6915 19.1449 21.9113 18.8588 22.0577C18.5778 22.2015 18.2811 22.25 17.9971 22.25C17.3484 22.25 16.7193 21.8931 16.2115 21.5403C15.7158 21.1959 15.194 20.7499 14.7005 20.3282C14.6614 20.2948 14.6224 20.2615 14.5837 20.2284C14.0388 19.7633 13.527 19.3339 13.0467 19.0186C12.5485 18.6915 12.1983 18.566 11.9701 18.566C11.742 18.566 11.3918 18.6915 10.8936 19.0186C10.4133 19.3339 9.90146 19.7633 9.35654 20.2284C9.31781 20.2615 9.27887 20.2948 9.23975 20.3282C8.74629 20.7499 8.22448 21.1959 7.72877 21.5403C7.22098 21.8931 6.5919 22.25 5.94313 22.25C5.65915 22.25 5.36247 22.2015 5.08147 22.0577C4.79536 21.9113 4.57501 21.6915 4.40909 21.4262C4.10057 20.9329 3.96026 20.2461 3.87889 19.4369C3.74251 18.0807 3.74627 16.0013 3.75174 12.9766C3.75289 12.337 3.75413 11.6552 3.75413 10.929C3.75413 9.04736 3.82096 7.52872 4.03387 6.31915C4.24716 5.10742 4.61928 4.13015 5.28808 3.39749C5.96485 2.65608 6.86567 2.25168 7.95867 2.02799ZM5.51116 6.57919C5.32216 7.65291 5.25413 9.06214 5.25413 10.929C5.25413 11.6729 5.25295 12.3658 5.25186 13.011C5.24672 16.0367 5.24337 18.014 5.37136 19.2868C5.45024 20.0713 5.56993 20.4535 5.68085 20.6309C5.72465 20.7009 5.75388 20.7168 5.76466 20.7223C5.78056 20.7305 5.8281 20.75 5.94313 20.75C6.09185 20.75 6.38652 20.6464 6.87286 20.3085C7.304 20.0089 7.7704 19.6105 8.28247 19.1732C8.31569 19.1448 8.3491 19.1162 8.38271 19.0876C8.9168 18.6317 9.49849 18.1401 10.0703 17.7647C10.6242 17.401 11.2848 17.066 11.9701 17.066C12.6555 17.066 13.316 17.401 13.8699 17.7647C14.4418 18.1401 15.0235 18.6317 15.5575 19.0876C15.5912 19.1162 15.6246 19.1448 15.6578 19.1731C16.1698 19.6105 16.6363 20.0089 17.0674 20.3085C17.5537 20.6464 17.8484 20.75 17.9971 20.75C18.1121 20.75 18.1597 20.7305 18.1756 20.7223C18.1864 20.7168 18.2156 20.7009 18.2594 20.6309C18.3703 20.4535 18.49 20.0713 18.5689 19.2868C18.6969 18.014 18.6935 16.0367 18.6884 13.0109C18.6873 12.3657 18.6861 11.6729 18.6861 10.929C18.6861 9.06214 18.6181 7.65291 18.4291 6.57919C18.2405 5.50764 17.9437 4.84622 17.5443 4.40876C17.153 3.98004 16.5865 3.68288 15.6808 3.49754C14.7616 3.30942 13.5623 3.25 11.9701 3.25C10.378 3.25 9.17864 3.30942 8.25942 3.49754C7.35377 3.68288 6.78727 3.98004 6.39592 4.40876C5.9966 4.84622 5.69978 5.50764 5.51116 6.57919Z" fill="#129575"/>
<path id="Stroke 1 (Stroke)" fill-rule="evenodd" clip-rule="evenodd" d="M7.79248 9.21777C7.79248 8.80356 8.12827 8.46777 8.54248 8.46777H15.3975C15.8117 8.46777 16.1475 8.80356 16.1475 9.21777C16.1475 9.63199 15.8117 9.96777 15.3975 9.96777H8.54248C8.12827 9.96777 7.79248 9.63199 7.79248 9.21777Z" fill="white"/>
</g>
</g>
</svg>
